<svg xmlns="http://www.w3.org/2000/svg" id="Capa_1" data-name="Capa 1" viewBox="0 0 768.61 128.69"><defs><style>.cls-1{fill:#211915}</style></defs><title>solarsavings</title><path d="M393.09,431.91a38.71,38.71,0,0,1-16-3.13,25.72,25.72,0,0,1-11-9,25.19,25.19,0,0,1-4.13-14.22h15.93a14.12,14.12,0,0,0,4.19,9.74c2.64,2.64,6.27,3.95,10.92,3.95q6,0,9.55-2.89a9.46,9.46,0,0,0,3.54-7.73,10.11,10.11,0,0,0-3.12-7.9,23.44,23.44,0,0,0-8.32-4.6c-3.46-1.19-7.16-2.44-11.09-3.78q-9.57-3.3-14.58-8.5t-5-13.8a21,21,0,0,1,3.48-12.57,23.71,23.71,0,0,1,9.85-8.14,37.39,37.39,0,0,1,29,.06,23.82,23.82,0,0,1,9.91,8.26A23.37,23.37,0,0,1,420,370.31H403.83a11.31,11.31,0,0,0-3.36-7.73q-3.24-3.36-9-3.36a12.91,12.91,0,0,0-8.32,2.42,8.67,8.67,0,0,0-3.36,7.37,8.51,8.51,0,0,0,2.6,6.55,20.69,20.69,0,0,0,7.08,4.07q4.49,1.67,10.26,3.54a69.93,69.93,0,0,1,11.21,5,23,23,0,0,1,8.14,7.49q3.07,4.67,3.07,12a23.13,23.13,0,0,1-3.3,12,23.78,23.78,0,0,1-9.8,8.91Q402.54,431.91,393.09,431.91Z" class="cls-1" transform="translate(-227.7 -329.18)"/><path d="M456.1,431.91A30.23,30.23,0,0,1,440.82,428a28.61,28.61,0,0,1-10.73-10.8,31.55,31.55,0,0,1-4-16,31.18,31.18,0,0,1,4-16,29,29,0,0,1,10.79-10.8,31.74,31.74,0,0,1,30.45,0,28.61,28.61,0,0,1,10.73,10.8,34.26,34.26,0,0,1,0,32A28.48,28.48,0,0,1,471.33,428,30.33,30.33,0,0,1,456.1,431.91Zm0-13.1a14,14,0,0,0,10.27-4.42q4.36-4.42,4.37-13.16t-4.37-13.16a14.06,14.06,0,0,0-20.47,0q-4.31,4.43-4.31,13.16t4.31,13.16A13.75,13.75,0,0,0,456.1,418.81Z" class="cls-1" transform="translate(-227.7 -329.18)"/><path d="M492.57,430.49v-85h15.1v85Z" class="cls-1" transform="translate(-227.7 -329.18)"/><path d="M536.34,431.91q-7.55,0-12.39-2.42a16.82,16.82,0,0,1-7.2-6.43,17.14,17.14,0,0,1-2.36-8.85A16.12,16.12,0,0,1,520.77,401q6.36-5.07,19.11-5.07h14.87V394.5q0-6-3.42-8.85a12.88,12.88,0,0,0-8.5-2.83,14.62,14.62,0,0,0-8,2.18,9.42,9.42,0,0,0-4.25,6.43H515.81a20.58,20.58,0,0,1,4.31-11.09,24.16,24.16,0,0,1,9.61-7.25A33.19,33.19,0,0,1,543,370.55q12.51,0,19.71,6.25t7.19,17.7v36H557l-1.41-9.44a21.82,21.82,0,0,1-7.26,7.79Q543.66,431.92,536.34,431.91Zm3.42-11.8q6.5,0,10.09-4.25a20.62,20.62,0,0,0,4.55-10.5H541.53q-6,0-8.61,2.18a6.78,6.78,0,0,0-2.6,5.37,6.19,6.19,0,0,0,2.6,5.31A11.36,11.36,0,0,0,539.76,420.11Z" class="cls-1" transform="translate(-227.7 -329.18)"/><path d="M577.29,430.49V372h13.45l1.42,11a23.76,23.76,0,0,1,21.59-12.39v15.93H609.5a24.08,24.08,0,0,0-8.85,1.53,12,12,0,0,0-6.08,5.31q-2.18,3.78-2.18,10.51v26.66Z" class="cls-1" transform="translate(-227.7 -329.18)"/><path d="M645.61,431.91a38.72,38.72,0,0,1-16.05-3.13,25.69,25.69,0,0,1-11-9,25,25,0,0,1-4.13-14.22h15.93a14,14,0,0,0,4.19,9.74q3.95,4,10.91,3.95,6,0,9.56-2.89a9.46,9.46,0,0,0,3.54-7.73,10.09,10.09,0,0,0-3.13-7.9,23.35,23.35,0,0,0-8.32-4.6c-3.46-1.19-7.16-2.44-11.09-3.78q-9.56-3.3-14.57-8.5t-5-13.8a21,21,0,0,1,3.48-12.57,23.74,23.74,0,0,1,9.86-8.14,37.39,37.39,0,0,1,29,.06,23.88,23.88,0,0,1,9.91,8.26,23.37,23.37,0,0,1,3.83,12.62H656.35a11.28,11.28,0,0,0-3.37-7.73q-3.24-3.36-9-3.36a12.87,12.87,0,0,0-8.32,2.42,8.67,8.67,0,0,0-3.36,7.37,8.5,8.5,0,0,0,2.59,6.55,20.69,20.69,0,0,0,7.08,4.07q4.49,1.67,10.27,3.54a70.33,70.33,0,0,1,11.21,5,23.11,23.11,0,0,1,8.14,7.49q3.06,4.67,3.07,12a23.14,23.14,0,0,1-3.31,12,23.81,23.81,0,0,1-9.79,8.91Q655,431.91,645.61,431.91Z" class="cls-1" transform="translate(-227.7 -329.18)"/><path d="M700.71,431.91q-7.55,0-12.39-2.42a16.74,16.74,0,0,1-7.19-6.43,17,17,0,0,1-2.36-8.85A16.11,16.11,0,0,1,685.14,401q6.36-5.07,19.11-5.07h14.87V394.5q0-6-3.42-8.85a12.88,12.88,0,0,0-8.5-2.83,14.62,14.62,0,0,0-8,2.18,9.42,9.42,0,0,0-4.25,6.43H680.18a20.58,20.58,0,0,1,4.31-11.09,24.12,24.12,0,0,1,9.62-7.25,33.11,33.11,0,0,1,13.21-2.54q12.51,0,19.71,6.25t7.2,17.7v36H721.36L720,421.05a21.73,21.73,0,0,1-7.26,7.79Q708,431.92,700.71,431.91Zm3.42-11.8q6.5,0,10.09-4.25a20.62,20.62,0,0,0,4.55-10.5H705.91q-6,0-8.62,2.18a6.77,6.77,0,0,0-2.59,5.37,6.18,6.18,0,0,0,2.59,5.31A11.36,11.36,0,0,0,704.13,420.11Z" class="cls-1" transform="translate(-227.7 -329.18)"/><path d="M755.7,430.49,734.23,372H750l14.87,44.25L779.77,372h15.82L774,430.49Z" class="cls-1" transform="translate(-227.7 -329.18)"/><path d="M806.32,362.88a9.55,9.55,0,0,1-6.78-2.48,8.18,8.18,0,0,1-2.66-6.25,8,8,0,0,1,2.66-6.2,10.72,10.72,0,0,1,13.57,0,8,8,0,0,1,2.65,6.2,8.17,8.17,0,0,1-2.65,6.25A9.56,9.56,0,0,1,806.32,362.88Zm-7.55,67.61V372h15.11v58.53Z" class="cls-1" transform="translate(-227.7 -329.18)"/><path d="M822.72,430.49V372h13.34l1.18,9.92a20.51,20.51,0,0,1,7.85-8.26,23.07,23.07,0,0,1,12.09-3.07q10.86,0,16.87,6.84t6,20.06v33H865V398.87q0-7.55-3.07-11.57t-9.56-4a13.46,13.46,0,0,0-10.44,4.49q-4.06,4.49-4.07,12.51v30.2Z" class="cls-1" transform="translate(-227.7 -329.18)"/><path d="M912.29,413a31.07,31.07,0,0,1-7.91-.95L900,416.45a20.79,20.79,0,0,0,5.43,1.77q3.42.7,11.09,1.42,11.69,1,17,5.54t5.3,12.39a18.69,18.69,0,0,1-2.83,9.86,20.32,20.32,0,0,1-8.73,7.55q-5.89,2.89-15.1,2.89-12.51,0-20.18-4.66t-7.67-14q0-7.92,7.67-13.69a25.46,25.46,0,0,1-4.07-2.25,21.13,21.13,0,0,1-3-2.47V418.1l10.26-10.85a19.66,19.66,0,0,1-6.84-15.46,20.36,20.36,0,0,1,11.09-18.41,27,27,0,0,1,12.87-2.83,29,29,0,0,1,9.2,1.41h22.18v9.21l-10,.71a21.89,21.89,0,0,1-.47,20.65,20.16,20.16,0,0,1-8.2,7.67A26.93,26.93,0,0,1,912.29,413Zm-14.16,24.66a7,7,0,0,0,4.07,6.55,20.79,20.79,0,0,0,10,2.18,16.57,16.57,0,0,0,9.2-2.3,7.06,7.06,0,0,0,3.54-6.19,6.92,6.92,0,0,0-2.3-5.31c-1.53-1.42-4.58-2.28-9.15-2.6-3.22-.23-6.21-.59-9-1.06a13.38,13.38,0,0,0-4.9,4.13A8.29,8.29,0,0,0,898.13,437.69Zm14.16-36.23A11.6,11.6,0,0,0,919.9,399a9.83,9.83,0,0,0,0-14.16,13.19,13.19,0,0,0-15.4,0,10,10,0,0,0,0,14.16A11.7,11.7,0,0,0,912.29,401.46Z" class="cls-1" transform="translate(-227.7 -329.18)"/><path d="M971.87,431.91a34.47,34.47,0,0,1-13.69-2.54,23.54,23.54,0,0,1-9.43-7A20.23,20.23,0,0,1,944.5,412h15.22a9.8,9.8,0,0,0,3.83,5.84,12.87,12.87,0,0,0,8.09,2.42q5,0,7.25-2a6,6,0,0,0,2.3-4.6,5.06,5.06,0,0,0-3.3-5.13,58,58,0,0,0-9.2-2.66q-3.78-.82-7.67-2a35.37,35.37,0,0,1-7.14-3,15.55,15.55,0,0,1-5.25-4.72,12.22,12.22,0,0,1-2-7.14,16.59,16.59,0,0,1,6.2-13.1q6.2-5.31,17.4-5.31,10.38,0,16.58,4.84a19.57,19.57,0,0,1,7.37,13.33H979.9q-1.3-6.48-9.8-6.49a11.14,11.14,0,0,0-6.55,1.65,5,5,0,0,0-2.3,4.13q0,2.6,3.42,4.13a49.45,49.45,0,0,0,9.09,2.83q6.13,1.42,11.27,3.13a18.9,18.9,0,0,1,8.2,5.08q3.07,3.36,3.07,9.61a16.48,16.48,0,0,1-2.83,9.8,19.56,19.56,0,0,1-8.5,6.84A31.93,31.93,0,0,1,971.87,431.91Z" class="cls-1" transform="translate(-227.7 -329.18)"/><path d="M320,425.11c0,3,0,5.94,0,8.91,0,2.49-1,3.24-3.33,2.5-5.5-1.79-11-3.56-16.5-5.37-1.48-.48-2.5-.46-3.56,1.08-3.19,4.67-6.62,9.18-9.94,13.75-1.76,2.41-3,2.45-4.71.07-3.34-4.56-6.74-9.08-9.95-13.74a2.65,2.65,0,0,0-3.54-1.18c-5.42,1.8-10.86,3.54-16.3,5.31-2.6.85-3.59.17-3.6-2.58,0-5.73,0-11.46,0-17.2,0-1.53-.31-2.34-2-2.86-5.67-1.72-11.27-3.68-16.87-5.61-2.12-.72-2.48-1.88-1.2-3.68q5.12-7.17,10.34-14.25a2.48,2.48,0,0,0,0-3.52c-3.41-4.51-6.66-9.14-10-13.73-1.83-2.55-1.48-3.55,1.55-4.55,5.36-1.78,10.7-3.62,16.09-5.3a2.45,2.45,0,0,0,2.06-2.82c-.11-5.52,0-11,0-16.57,0-3.63.8-4.19,4.15-3.09,5.37,1.77,10.76,3.46,16.12,5.22a2.28,2.28,0,0,0,3-1c3.32-4.76,6.77-9.42,10.17-14.12,1.54-2.14,3-2.16,4.5-.08,3.4,4.7,6.87,9.34,10.16,14.11a2.4,2.4,0,0,0,3.19,1c5.44-1.78,10.89-3.5,16.32-5.28,3-1,3.81-.39,3.82,2.85,0,5.66,0,11.33-.05,17a2.33,2.33,0,0,0,1.95,2.66c5.53,1.73,11,3.61,16.5,5.43,2.55.85,3,2.05,1.44,4.25-3.36,4.73-6.73,9.44-10.21,14.08a2.37,2.37,0,0,0,.05,3.34q5.16,7,10.2,14.08c1.5,2.12,1.13,3.25-1.36,4.1-5.61,1.91-11.24,3.79-16.89,5.56a2,2,0,0,0-1.67,2.26c0,3,0,5.94,0,8.91Zm-35.81,1.68a38.24,38.24,0,0,0,38.42-38.62c0-20.87-17.39-38.11-38.37-38a38.51,38.51,0,0,0-38.35,38.95C246,409.67,263.26,426.8,284.14,426.79Z" transform="translate(-227.7 -329.18)"/></svg>